<svg width="48" height="48" viewBox="0 0 48 48" fill="none" xmlns="http://www.w3.org/2000/svg">
<rect width="48" height="48" rx="24" fill="#636060"/>
<path d="M34.7313 23.6825L20.7313 38.6825C20.5829 38.8408 20.3871 38.9466 20.1733 38.9839C19.9596 39.0211 19.7395 38.9879 19.5463 38.8891C19.3531 38.7903 19.1973 38.6314 19.1024 38.4363C19.0075 38.2412 18.9786 38.0205 19.02 37.8075L20.8525 28.6412L13.6488 25.9362C13.4941 25.8784 13.3561 25.7831 13.2472 25.6589C13.1383 25.5347 13.0619 25.3854 13.0248 25.2245C12.9876 25.0635 12.9909 24.8959 13.0344 24.7365C13.0778 24.5772 13.1601 24.431 13.2738 24.3112L27.2738 9.31124C27.4222 9.15291 27.618 9.04713 27.8317 9.00986C28.0455 8.97259 28.2656 9.00586 28.4588 9.10464C28.652 9.20342 28.8078 9.36236 28.9027 9.55746C28.9976 9.75257 29.0265 9.97326 28.985 10.1862L27.1475 19.3625L34.3513 22.0637C34.5049 22.122 34.6417 22.2172 34.7498 22.3409C34.8578 22.4646 34.9337 22.613 34.9708 22.773C35.0079 22.933 35.005 23.0997 34.9623 23.2583C34.9197 23.417 34.8386 23.5626 34.7263 23.6825H34.7313Z" fill="#F9F7F7"/>
</svg>
