<svg width="48" height="48" viewBox="0 0 48 48" fill="none" xmlns="http://www.w3.org/2000/svg">
<rect width="48" height="48" rx="24" fill="#CC8A00"/>
<path d="M37.9999 15V23C38.0001 23.1979 37.9415 23.3914 37.8317 23.556C37.7218 23.7206 37.5656 23.8489 37.3827 23.9246C37.1999 24.0004 36.9987 24.0202 36.8046 23.9815C36.6106 23.9429 36.4323 23.8475 36.2924 23.7075L32.9999 20.4138L25.7074 27.7075C25.6146 27.8005 25.5043 27.8742 25.3829 27.9246C25.2615 27.9749 25.1314 28.0008 24.9999 28.0008C24.8685 28.0008 24.7384 27.9749 24.617 27.9246C24.4956 27.8742 24.3853 27.8005 24.2924 27.7075L19.9999 23.4137L11.7074 31.7075C11.5198 31.8951 11.2653 32.0006 10.9999 32.0006C10.7346 32.0006 10.4801 31.8951 10.2924 31.7075C10.1048 31.5199 9.99939 31.2654 9.99939 31C9.99939 30.7346 10.1048 30.4801 10.2924 30.2925L19.2924 21.2925C19.3853 21.1995 19.4956 21.1258 19.617 21.0754C19.7384 21.0251 19.8685 20.9992 19.9999 20.9992C20.1314 20.9992 20.2615 21.0251 20.3829 21.0754C20.5043 21.1258 20.6146 21.1995 20.7074 21.2925L24.9999 25.5863L31.5862 19L28.2924 15.7075C28.1524 15.5676 28.0571 15.3894 28.0184 15.1953C27.9798 15.0012 27.9996 14.8 28.0753 14.6172C28.1511 14.4344 28.2794 14.2782 28.444 14.1683C28.6086 14.0584 28.8021 13.9998 28.9999 14H36.9999C37.2652 14 37.5195 14.1054 37.7071 14.2929C37.8946 14.4804 37.9999 14.7348 37.9999 15Z" fill="#FAF3E6"/>
</svg>
