<svg width="48" height="48" viewBox="0 0 48 48" fill="none" xmlns="http://www.w3.org/2000/svg">
<rect width="48" height="48" rx="24" fill="#25D363"/>
<path d="M38.625 21.83C38.4394 21.5727 38.1952 21.3632 37.9127 21.2189C37.6301 21.0746 37.3173 20.9995 37 21H35V19C35 18.4696 34.7893 17.9609 34.4142 17.5858C34.0391 17.2107 33.5304 17 33 17H24.3337L20.8675 14.4C20.5207 14.1415 20.1 14.0013 19.6675 14H13C12.4696 14 11.9609 14.2107 11.5858 14.5858C11.2107 14.9609 11 15.4696 11 16V34C11 34.2652 11.1054 34.5196 11.2929 34.7071C11.4804 34.8946 11.7348 35 12 35H34.3875C34.5974 35 34.802 34.934 34.9722 34.8113C35.1425 34.6886 35.2699 34.5154 35.3363 34.3162L38.8975 23.6325C38.9976 23.3319 39.0252 23.0118 38.9778 22.6985C38.9304 22.3852 38.8095 22.0876 38.625 21.83ZM19.6675 16L23.4 18.8C23.5731 18.9298 23.7836 19 24 19H33V21H16.7212C16.3015 21 15.8923 21.132 15.5518 21.3775C15.2112 21.6229 14.9565 21.9693 14.8238 22.3675L13 27.8375V16H19.6675Z" fill="#E9FBEF"/>
</svg>
