<svg width="48" height="48" viewBox="0 0 48 48" fill="none" xmlns="http://www.w3.org/2000/svg">
<rect width="48" height="48" rx="24" fill="#386EAF"/>
<path d="M37.0088 31.345C37.6998 29.9118 38.0388 28.3345 37.9977 26.744C37.9567 25.1535 37.5367 23.5958 36.7727 22.2002C36.0087 20.8046 34.9228 19.6114 33.6051 18.7198C32.2873 17.8282 30.7759 17.2639 29.1963 17.0737C28.6707 15.8517 27.9065 14.7468 26.9486 13.8238C25.9907 12.9007 24.8582 12.1781 23.6175 11.6982C22.3768 11.2183 21.0528 10.9907 19.7231 11.0289C18.3933 11.0671 17.0846 11.3701 15.8734 11.9204C14.6623 12.4707 13.5731 13.2571 12.6697 14.2335C11.7663 15.21 11.0668 16.3569 10.6121 17.607C10.1574 18.8572 9.9568 20.1855 10.0219 21.5142C10.087 22.8429 10.4166 24.1452 10.9913 25.345L10.0825 28.4337C9.98093 28.7785 9.97413 29.1444 10.0629 29.4927C10.1516 29.8411 10.3326 30.1591 10.5868 30.4132C10.8409 30.6674 11.1589 30.8484 11.5073 30.9371C11.8556 31.0259 12.2215 31.0191 12.5663 30.9175L15.655 30.0087C16.6468 30.4852 17.7101 30.7956 18.8025 30.9275C19.3333 32.171 20.1106 33.294 21.0877 34.2285C22.0647 35.1631 23.2211 35.8898 24.4869 36.3647C25.7528 36.8397 27.1018 37.053 28.4525 36.9918C29.8031 36.9306 31.1273 36.5962 32.345 36.0087L35.4338 36.9175C35.7785 37.019 36.1441 37.0257 36.4923 36.937C36.8405 36.8484 37.1584 36.6675 37.4125 36.4135C37.6667 36.1595 37.8477 35.8417 37.9366 35.4935C38.0254 35.1454 38.0188 34.7797 37.9175 34.435L37.0088 31.345ZM34.9775 31.5287L36 35L32.53 33.9787C32.2793 33.9061 32.0102 33.9344 31.78 34.0575C29.9386 35.0408 27.7859 35.2659 25.7808 34.685C23.7757 34.104 22.0768 32.7629 21.0463 30.9475C22.4155 30.8046 23.7404 30.3802 24.9379 29.7011C26.1354 29.022 27.1796 28.1027 28.0051 27.001C28.8305 25.8993 29.4194 24.6388 29.7347 23.2988C30.0501 21.9587 30.0851 20.568 29.8375 19.2137C31.0305 19.4949 32.1429 20.0465 33.0889 20.8259C34.0349 21.6052 34.7892 22.5915 35.2935 23.7086C35.7978 24.8258 36.0387 26.0438 35.9976 27.2688C35.9565 28.4938 35.6344 29.693 35.0563 30.7737C34.9318 31.0053 34.9035 31.2765 34.9775 31.5287Z" fill="#EDF5FE"/>
</svg>
